<?xml version="1.0" encoding="UTF-8" standalone="no"?>
<!-- Generator: Adobe Illustrator 19.0.0, SVG Export Plug-In . SVG Version: 6.00 Build 0)  -->

<svg
   xmlns:dc="http://purl.org/dc/elements/1.1/"
   xmlns:cc="http://creativecommons.org/ns#"
   xmlns:rdf="http://www.w3.org/1999/02/22-rdf-syntax-ns#"
   xmlns:svg="http://www.w3.org/2000/svg"
   xmlns="http://www.w3.org/2000/svg"
   xmlns:sodipodi="http://sodipodi.sourceforge.net/DTD/sodipodi-0.dtd"
   xmlns:inkscape="http://www.inkscape.org/namespaces/inkscape"
   version="1.1"
   id="Layer_1"
   x="0px"
   y="0px"
   viewBox="0 0 512 512"
   style="enable-background:new 0 0 512 512;"
   xml:space="preserve"
   inkscape:version="0.91 r13725"
   sodipodi:docname="catalogue.svg"><metadata
     id="metadata8681"><rdf:RDF><cc:Work
         rdf:about=""><dc:format>image/svg+xml</dc:format><dc:type
           rdf:resource="http://purl.org/dc/dcmitype/StillImage" /></cc:Work></rdf:RDF></metadata><defs
     id="defs8679" /><sodipodi:namedview
     pagecolor="#ffffff"
     bordercolor="#666666"
     borderopacity="1"
     objecttolerance="10"
     gridtolerance="10"
     guidetolerance="10"
     inkscape:pageopacity="0"
     inkscape:pageshadow="2"
     inkscape:window-width="958"
     inkscape:window-height="1061"
     id="namedview8677"
     showgrid="false"
     showguides="false"
     inkscape:zoom="0.32247936"
     inkscape:cx="263.7648"
     inkscape:cy="758.52871"
     inkscape:window-x="2880"
     inkscape:window-y="0"
     inkscape:window-maximized="0"
     inkscape:current-layer="g8696" /><g
     id="g8711"><g
       id="g8696"><g
         id="g8621"
         transform="translate(1,1)"><g
           id="g8623"><path
             inkscape:connector-curvature="0"
             id="path8625"
             d="M 468.333,-1 144.067,-1 75.8,-1 C 61.293,-1 50.2,10.093 50.2,24.6 l 0,0.825 c -19.681,3.86 -34.133,20.878 -34.133,41.841 0,20.963 14.452,37.981 34.133,41.841 l 0,10.184 c -19.681,3.86 -34.133,20.878 -34.133,41.841 0,20.963 14.452,37.981 34.133,41.841 l 0,10.184 c -19.681,3.86 -34.133,20.878 -34.133,41.841 0,20.963 14.452,37.981 34.133,41.841 l 0,10.184 c -19.681,3.86 -34.133,20.878 -34.133,41.841 0,20.963 14.452,37.981 34.133,41.841 l 0,10.184 c -19.681,3.86 -34.133,20.878 -34.133,41.841 0,20.963 14.452,37.981 34.133,41.841 l 0,0.825 c 0,14.507 11.093,25.6 25.6,25.6 l 68.267,0 324.267,0 c 14.507,0 25.6,-11.093 25.6,-25.6 l 0,-460.796 C 493.933,10.093 482.84,-1 468.333,-1 Z m -435.2,68.267 c 0,-11.491 6.963,-20.833 17.067,-24.224 l 0,48.448 C 40.097,88.1 33.133,78.757 33.133,67.267 Z m 0,93.866 c 0,-11.491 6.963,-20.833 17.067,-24.224 l 0,48.448 C 40.097,181.967 33.133,172.624 33.133,161.133 Z m 0,93.867 c 0,-11.491 6.963,-20.833 17.067,-24.224 l 0,48.448 C 40.097,275.833 33.133,266.491 33.133,255 Z m 0,93.867 c 0,-11.491 6.963,-20.833 17.067,-24.224 l 0,48.448 C 40.097,369.7 33.133,360.357 33.133,348.867 Z m 0,93.866 c 0,-11.491 6.963,-20.833 17.067,-24.224 l 0,48.448 C 40.097,463.567 33.133,454.224 33.133,442.733 Z m 34.134,42.667 0,-66.891 c 10.103,3.391 17.067,12.734 17.067,24.224 0,5.12 3.413,8.533 8.533,8.533 5.12,0 8.533,-3.413 8.533,-8.533 0,-20.963 -14.452,-37.981 -34.133,-41.841 l 0,-76.25 c 10.103,3.391 17.067,12.734 17.067,24.224 0,5.12 3.413,8.533 8.533,8.533 5.12,0 8.533,-3.413 8.533,-8.533 0,-20.963 -14.452,-37.981 -34.133,-41.841 l 0,-76.25 c 10.103,3.392 17.066,12.734 17.066,24.225 0,5.12 3.413,8.533 8.533,8.533 5.12,0 8.534,-3.413 8.534,-8.533 0,-20.963 -14.452,-37.981 -34.133,-41.841 l 0,-76.25 c 10.103,3.391 17.067,12.734 17.067,24.224 0,5.12 3.413,8.533 8.533,8.533 5.12,0 8.533,-3.413 8.533,-8.533 0,-20.963 -14.452,-37.981 -34.133,-41.841 l 0,-76.25 c 10.103,3.391 17.067,12.734 17.067,24.224 0,5.12 3.413,8.533 8.533,8.533 5.12,0 8.533,-3.413 8.533,-8.533 0,-20.963 -14.452,-37.981 -34.133,-41.841 l 0,-0.825 c 0,-5.12 3.413,-8.533 8.533,-8.533 l 59.733,0 0,477.867 -59.733,0 c -5.12,-0.001 -8.533,-3.414 -8.533,-8.534 z m 409.6,0 c 0,5.12 -3.413,8.533 -8.533,8.533 l -315.734,0 0,-477.866 315.733,0 c 5.12,0 8.533,3.413 8.533,8.533 l 0,460.8 z" /><path
             inkscape:connector-curvature="0"
             id="path8629"
             d="m 195.267,323.267 85.333,0 c 5.12,0 8.533,-3.413 8.533,-8.533 0,-5.12 -3.413,-8.533 -8.533,-8.533 l -85.333,0 c -5.12,0 -8.533,3.413 -8.533,8.533 0,5.12 3.413,8.533 8.533,8.533 z" /><path
             inkscape:connector-curvature="0"
             id="path8631"
             d="m 314.733,306.2 c -5.12,0 -8.533,3.413 -8.533,8.533 0,5.12 3.413,8.533 8.533,8.533 l 59.733,0 c 5.12,0 8.533,-3.413 8.533,-8.533 0,-5.12 -3.413,-8.533 -8.533,-8.533 l -59.733,0 z" /><path
             inkscape:connector-curvature="0"
             id="path8633"
             d="m 434.2,306.2 -25.6,0 c -5.12,0 -8.533,3.413 -8.533,8.533 0,5.12 3.413,8.533 8.533,8.533 l 25.6,0 c 5.12,0 8.533,-3.413 8.533,-8.533 0,-5.12 -3.413,-8.533 -8.533,-8.533 z" /><path
             inkscape:connector-curvature="0"
             id="path8635"
             d="m 434.2,357.4 -59.733,0 c -5.12,0 -8.533,3.413 -8.533,8.533 0,5.12 3.413,8.533 8.533,8.533 l 59.733,0 c 5.12,0 8.533,-3.413 8.533,-8.533 0,-5.12 -3.413,-8.533 -8.533,-8.533 z" /><path
             inkscape:connector-curvature="0"
             id="path8637"
             d="m 348.867,365.933 c 0,-5.12 -3.413,-8.533 -8.533,-8.533 l -68.267,0 c -5.12,0 -8.533,3.413 -8.533,8.533 0,5.12 3.413,8.533 8.533,8.533 l 68.267,0 c 5.119,10e-4 8.533,-3.413 8.533,-8.533 z" /><path
             inkscape:connector-curvature="0"
             id="path8639"
             d="m 195.267,374.467 42.667,0 c 5.12,0 8.533,-3.413 8.533,-8.533 0,-5.12 -3.413,-8.533 -8.533,-8.533 l -42.667,0 c -5.12,0 -8.533,3.413 -8.533,8.533 0,5.12 3.413,8.533 8.533,8.533 z" /><path
             inkscape:connector-curvature="0"
             id="path8641"
             d="m 255,408.6 -59.733,0 c -5.12,0 -8.533,3.413 -8.533,8.533 0,5.12 3.413,8.533 8.533,8.533 l 59.733,0 c 5.12,0 8.533,-3.413 8.533,-8.533 0,-5.12 -3.413,-8.533 -8.533,-8.533 z" /><path
             inkscape:connector-curvature="0"
             id="path8643"
             d="m 365.933,408.6 -76.8,0 c -5.12,0 -8.533,3.413 -8.533,8.533 0,5.12 3.413,8.533 8.533,8.533 l 76.8,0 c 5.12,0 8.533,-3.413 8.533,-8.533 0,-5.12 -3.413,-8.533 -8.533,-8.533 z" /><path
             inkscape:connector-curvature="0"
             id="path8645"
             d="m 434.2,408.6 -34.133,0 c -5.12,0 -8.533,3.413 -8.533,8.533 0,5.12 3.413,8.533 8.533,8.533 l 34.133,0 c 5.12,0 8.533,-3.413 8.533,-8.533 0,-5.12 -3.413,-8.533 -8.533,-8.533 z" /></g></g><path
         style="fill:none;fill-rule:evenodd;stroke:#000000;stroke-width:12;stroke-linecap:round;stroke-linejoin:round;stroke-opacity:1;stroke-miterlimit:4;stroke-dasharray:none"
         d="m 417.79674,130.49991 -33.30226,-26.29699 -6.82894,-49.843491 -36.07836,36.986702 c -23.13673,-8.995099 -31.75897,-6.678125 -51.64939,-0.08253 l -36.07836,-36.986703 -6.82893,49.843492 -33.30227,26.29699 c 0,0 44.50089,46.60932 53.23811,106.37015 35.92321,-14.68253 69.12912,-14.13959 97.59229,0.0824 11.89427,-59.08084 53.23811,-106.37006 53.23811,-106.37006 z"
         id="path7153"
         inkscape:connector-curvature="0"
         sodipodi:nodetypes="ccccccccccc" /><path
         style="fill:none;fill-rule:evenodd;stroke:#000000;stroke-width:12;stroke-linecap:round;stroke-linejoin:round;stroke-miterlimit:4;stroke-dasharray:none;stroke-opacity:1"
         d="m 308.05129,138.54806 c -21.31443,11.62257 -27.49251,18.01896 -57.09062,0 23.10416,-14.77547 32.14454,-15.15086 57.09062,0 z"
         id="path7185-4"
         inkscape:connector-curvature="0"
         sodipodi:nodetypes="ccc" /><path
         style="fill:none;fill-rule:evenodd;stroke:#000000;stroke-width:12;stroke-linecap:round;stroke-linejoin:round;stroke-miterlimit:4;stroke-dasharray:none;stroke-opacity:1"
         d="m 323.47373,138.54806 c 21.31443,11.62257 27.49251,18.01895 57.09062,0 -23.10416,-14.77547 -32.14454,-15.15086 -57.09062,0 z"
         id="path7185-4-3"
         inkscape:connector-curvature="0"
         sodipodi:nodetypes="ccc" /><path
         style="fill:none;fill-rule:evenodd;stroke:#000000;stroke-width:6;stroke-linecap:round;stroke-linejoin:round;stroke-miterlimit:4;stroke-dasharray:none;stroke-opacity:1"
         d="m 235.95651,187.0263 65.25406,0"
         id="path7227"
         inkscape:connector-curvature="0" /><path
         style="fill:none;fill-rule:evenodd;stroke:#000000;stroke-width:6;stroke-linecap:round;stroke-linejoin:round;stroke-miterlimit:4;stroke-dasharray:none;stroke-opacity:1"
         d="m 239.75034,198.15044 59.18388,-4.76749"
         id="path7231"
         inkscape:connector-curvature="0" /><path
         style="fill:none;fill-rule:evenodd;stroke:#000000;stroke-width:6;stroke-linecap:round;stroke-linejoin:round;stroke-miterlimit:4;stroke-dasharray:none;stroke-opacity:1"
         d="m 245.8205,209.68542 53.11375,-9.53498"
         id="path7233"
         inkscape:connector-curvature="0" /><path
         style="fill:none;fill-rule:evenodd;stroke:#000000;stroke-width:6;stroke-linecap:round;stroke-linejoin:round;stroke-miterlimit:4;stroke-dasharray:none;stroke-opacity:1"
         d="m 395.56832,187.0263 -65.25404,0"
         id="path7227-6"
         inkscape:connector-curvature="0" /><path
         style="fill:none;fill-rule:evenodd;stroke:#000000;stroke-width:6;stroke-linecap:round;stroke-linejoin:round;stroke-miterlimit:4;stroke-dasharray:none;stroke-opacity:1"
         d="M 391.77448,198.15044 332.5906,193.38295"
         id="path7231-9"
         inkscape:connector-curvature="0" /><path
         style="fill:none;fill-rule:evenodd;stroke:#000000;stroke-width:6;stroke-linecap:round;stroke-linejoin:round;stroke-miterlimit:4;stroke-dasharray:none;stroke-opacity:1"
         d="M 385.70435,209.68542 332.5906,200.15044"
         id="path7233-4"
         inkscape:connector-curvature="0" /><path
         style="fill:none;fill-rule:evenodd;stroke:#000000;stroke-width:6;stroke-linecap:round;stroke-linejoin:round;stroke-miterlimit:4;stroke-dasharray:none;stroke-opacity:1"
         d="m 279.50595,125.17773 0,14.0142"
         id="path8794"
         inkscape:connector-curvature="0"
         sodipodi:nodetypes="cc" /><path
         style="fill:none;fill-rule:evenodd;stroke:#000000;stroke-width:6;stroke-linecap:round;stroke-linejoin:round;stroke-miterlimit:4;stroke-dasharray:none;stroke-opacity:1"
         d="m 352.01907,125.17773 0,14.0142"
         id="path8794-6"
         inkscape:connector-curvature="0"
         sodipodi:nodetypes="cc" /></g></g><g
     id="g8647" /><g
     id="g8649" /><g
     id="g8651" /><g
     id="g8653" /><g
     id="g8655" /><g
     id="g8657" /><g
     id="g8659" /><g
     id="g8661" /><g
     id="g8663" /><g
     id="g8665" /><g
     id="g8667" /><g
     id="g8669" /><g
     id="g8671" /><g
     id="g8673" /><g
     id="g8675" /></svg>